<?xml version="1.0" encoding="UTF-8" standalone="no"?>
<!DOCTYPE svg PUBLIC "-//W3C//DTD SVG 1.1//EN"
 "http://www.w3.org/Graphics/SVG/1.1/DTD/svg11.dtd">
<!-- Generated by graphviz version 2.43.0 (0)
 -->
<!-- Title: VisioVerbose Pages: 1 -->
<svg width="644pt" height="1122pt"
 viewBox="0.00 0.00 643.53 1122.00" xmlns="http://www.w3.org/2000/svg" xmlns:xlink="http://www.w3.org/1999/xlink">
<g id="graph0" class="graph" transform="scale(1 1) rotate(0) translate(4 1118)">
<title>VisioVerbose</title>
<polygon fill="white" stroke="transparent" points="-4,4 -4,-1118 639.53,-1118 639.53,4 -4,4"/>
<!-- Start_LinkServer -->
<g id="node1" class="node">
<title>Start_LinkServer</title>
<ellipse fill="none" stroke="black" cx="494.69" cy="-1096" rx="90.18" ry="18"/>
<text text-anchor="middle" x="494.69" y="-1092.3" font-family="Times,serif" font-size="14.00">Start_LinkServer</text>
</g>
<!-- Full_Load_File_Audit -->
<g id="node2" class="node">
<title>Full_Load_File_Audit</title>
<ellipse fill="none" stroke="black" cx="494.69" cy="-1023" rx="106.68" ry="18"/>
<text text-anchor="middle" x="494.69" y="-1019.3" font-family="Times,serif" font-size="14.00">Full_Load_File_Audit</text>
</g>
<!-- Start_LinkServer&#45;&gt;Full_Load_File_Audit -->
<g id="edge1" class="edge">
<title>Start_LinkServer&#45;&gt;Full_Load_File_Audit</title>
<path fill="none" stroke="black" d="M494.69,-1077.81C494.69,-1069.79 494.69,-1060.05 494.69,-1051.07"/>
<polygon fill="black" stroke="black" points="498.19,-1051.03 494.69,-1041.03 491.19,-1051.03 498.19,-1051.03"/>
</g>
<!-- Check_Latest_Timestamp -->
<g id="node3" class="node">
<title>Check_Latest_Timestamp</title>
<ellipse fill="none" stroke="black" cx="494.69" cy="-950" rx="128.88" ry="18"/>
<text text-anchor="middle" x="494.69" y="-946.3" font-family="Times,serif" font-size="14.00">Check_Latest_Timestamp</text>
</g>
<!-- Full_Load_File_Audit&#45;&gt;Check_Latest_Timestamp -->
<g id="edge2" class="edge">
<title>Full_Load_File_Audit&#45;&gt;Check_Latest_Timestamp</title>
<path fill="none" stroke="black" d="M494.69,-1004.81C494.69,-996.79 494.69,-987.05 494.69,-978.07"/>
<polygon fill="black" stroke="black" points="498.19,-978.03 494.69,-968.03 491.19,-978.03 498.19,-978.03"/>
</g>
<!-- Latest_Timestamp_Exists -->
<g id="node4" class="node">
<title>Latest_Timestamp_Exists</title>
<ellipse fill="none" stroke="black" cx="494.69" cy="-877" rx="129.18" ry="18"/>
<text text-anchor="middle" x="494.69" y="-873.3" font-family="Times,serif" font-size="14.00">Latest_Timestamp_Exists</text>
</g>
<!-- Check_Latest_Timestamp&#45;&gt;Latest_Timestamp_Exists -->
<g id="edge3" class="edge">
<title>Check_Latest_Timestamp&#45;&gt;Latest_Timestamp_Exists</title>
<path fill="none" stroke="black" d="M494.69,-931.81C494.69,-923.79 494.69,-914.05 494.69,-905.07"/>
<polygon fill="black" stroke="black" points="498.19,-905.03 494.69,-895.03 491.19,-905.03 498.19,-905.03"/>
</g>
<!-- Process_Starts_Fabric -->
<g id="node5" class="node">
<title>Process_Starts_Fabric</title>
<ellipse fill="none" stroke="black" cx="422.69" cy="-790" rx="113.98" ry="18"/>
<text text-anchor="middle" x="422.69" y="-786.3" font-family="Times,serif" font-size="14.00">Process_Starts_Fabric</text>
</g>
<!-- Latest_Timestamp_Exists&#45;&gt;Process_Starts_Fabric -->
<g id="edge4" class="edge">
<title>Latest_Timestamp_Exists&#45;&gt;Process_Starts_Fabric</title>
<path fill="none" stroke="black" d="M480.12,-858.8C469.61,-846.39 455.26,-829.46 443.54,-815.62"/>
<polygon fill="black" stroke="black" points="446.13,-813.25 436.99,-807.89 440.78,-817.78 446.13,-813.25"/>
<text text-anchor="middle" x="475.19" y="-829.8" font-family="Times,serif" font-size="14.00">Yes</text>
</g>
<!-- End_Success -->
<g id="node6" class="node">
<title>End_Success</title>
<ellipse fill="none" stroke="black" cx="564.69" cy="-18" rx="70.69" ry="18"/>
<text text-anchor="middle" x="564.69" y="-14.3" font-family="Times,serif" font-size="14.00">End_Success</text>
</g>
<!-- Latest_Timestamp_Exists&#45;&gt;End_Success -->
<g id="edge5" class="edge">
<title>Latest_Timestamp_Exists&#45;&gt;End_Success</title>
<path fill="none" stroke="black" d="M521.13,-859.18C541.31,-844.07 565.69,-819.84 565.69,-791 565.69,-791 565.69,-791 565.69,-104 565.69,-84.75 565.43,-63.05 565.17,-46.4"/>
<polygon fill="black" stroke="black" points="568.67,-46.2 565.01,-36.26 561.67,-46.31 568.67,-46.2"/>
<text text-anchor="middle" x="576.19" y="-450.8" font-family="Times,serif" font-size="14.00">No</text>
</g>
<!-- Identify_INS_UPD_DEL -->
<g id="node7" class="node">
<title>Identify_INS_UPD_DEL</title>
<ellipse fill="none" stroke="black" cx="416.69" cy="-717" rx="118.88" ry="18"/>
<text text-anchor="middle" x="416.69" y="-713.3" font-family="Times,serif" font-size="14.00">Identify_INS_UPD_DEL</text>
</g>
<!-- Process_Starts_Fabric&#45;&gt;Identify_INS_UPD_DEL -->
<g id="edge6" class="edge">
<title>Process_Starts_Fabric&#45;&gt;Identify_INS_UPD_DEL</title>
<path fill="none" stroke="black" d="M421.24,-771.81C420.56,-763.79 419.73,-754.05 418.98,-745.07"/>
<polygon fill="black" stroke="black" points="422.46,-744.7 418.13,-735.03 415.48,-745.29 422.46,-744.7"/>
</g>
<!-- Load_Staging_Workspace -->
<g id="node8" class="node">
<title>Load_Staging_Workspace</title>
<ellipse fill="none" stroke="black" cx="343.69" cy="-644" rx="128.08" ry="18"/>
<text text-anchor="middle" x="343.69" y="-640.3" font-family="Times,serif" font-size="14.00">Load_Staging_Workspace</text>
</g>
<!-- Identify_INS_UPD_DEL&#45;&gt;Load_Staging_Workspace -->
<g id="edge7" class="edge">
<title>Identify_INS_UPD_DEL&#45;&gt;Load_Staging_Workspace</title>
<path fill="none" stroke="black" d="M399.39,-699.17C390.18,-690.22 378.7,-679.05 368.55,-669.18"/>
<polygon fill="black" stroke="black" points="370.73,-666.41 361.12,-661.95 365.85,-671.43 370.73,-666.41"/>
</g>
<!-- Transform_Silver_Layer -->
<g id="node9" class="node">
<title>Transform_Silver_Layer</title>
<ellipse fill="none" stroke="black" cx="341.69" cy="-571" rx="121.58" ry="18"/>
<text text-anchor="middle" x="341.69" y="-567.3" font-family="Times,serif" font-size="14.00">Transform_Silver_Layer</text>
</g>
<!-- Load_Staging_Workspace&#45;&gt;Transform_Silver_Layer -->
<g id="edge8" class="edge">
<title>Load_Staging_Workspace&#45;&gt;Transform_Silver_Layer</title>
<path fill="none" stroke="black" d="M343.2,-625.81C342.98,-617.79 342.7,-608.05 342.45,-599.07"/>
<polygon fill="black" stroke="black" points="345.95,-598.93 342.17,-589.03 338.95,-599.12 345.95,-598.93"/>
</g>
<!-- All_Table_Loads_Successful -->
<g id="node10" class="node">
<title>All_Table_Loads_Successful</title>
<ellipse fill="none" stroke="black" cx="334.69" cy="-498" rx="137.58" ry="18"/>
<text text-anchor="middle" x="334.69" y="-494.3" font-family="Times,serif" font-size="14.00">All_Table_Loads_Successful</text>
</g>
<!-- Transform_Silver_Layer&#45;&gt;All_Table_Loads_Successful -->
<g id="edge9" class="edge">
<title>Transform_Silver_Layer&#45;&gt;All_Table_Loads_Successful</title>
<path fill="none" stroke="black" d="M339.99,-552.81C339.2,-544.79 338.24,-535.05 337.36,-526.07"/>
<polygon fill="black" stroke="black" points="340.83,-525.64 336.37,-516.03 333.87,-526.32 340.83,-525.64"/>
</g>
<!-- Failed_Tables_After_Retry -->
<g id="node11" class="node">
<title>Failed_Tables_After_Retry</title>
<ellipse fill="none" stroke="black" cx="406.69" cy="-411" rx="131.08" ry="18"/>
<text text-anchor="middle" x="406.69" y="-407.3" font-family="Times,serif" font-size="14.00">Failed_Tables_After_Retry</text>
</g>
<!-- All_Table_Loads_Successful&#45;&gt;Failed_Tables_After_Retry -->
<g id="edge10" class="edge">
<title>All_Table_Loads_Successful&#45;&gt;Failed_Tables_After_Retry</title>
<path fill="none" stroke="black" d="M349.26,-479.8C359.7,-467.47 373.93,-450.68 385.61,-436.89"/>
<polygon fill="black" stroke="black" points="388.35,-439.07 392.14,-429.18 383.01,-434.54 388.35,-439.07"/>
<text text-anchor="middle" x="387.19" y="-450.8" font-family="Times,serif" font-size="14.00">Yes</text>
</g>
<!-- Wait_Review_Failed_Logs -->
<g id="node12" class="node">
<title>Wait_Review_Failed_Logs</title>
<ellipse fill="none" stroke="black" cx="128.69" cy="-411" rx="128.88" ry="18"/>
<text text-anchor="middle" x="128.69" y="-407.3" font-family="Times,serif" font-size="14.00">Wait_Review_Failed_Logs</text>
</g>
<!-- All_Table_Loads_Successful&#45;&gt;Wait_Review_Failed_Logs -->
<g id="edge11" class="edge">
<title>All_Table_Loads_Successful&#45;&gt;Wait_Review_Failed_Logs</title>
<path fill="none" stroke="black" d="M294.97,-480.61C261.38,-466.75 213.12,-446.84 177.24,-432.03"/>
<polygon fill="black" stroke="black" points="178.51,-428.77 167.94,-428.19 175.84,-435.24 178.51,-428.77"/>
<text text-anchor="middle" x="255.19" y="-450.8" font-family="Times,serif" font-size="14.00">No</text>
</g>
<!-- Success_Outlook -->
<g id="node13" class="node">
<title>Success_Outlook</title>
<ellipse fill="none" stroke="black" cx="430.69" cy="-324" rx="88.28" ry="18"/>
<text text-anchor="middle" x="430.69" y="-320.3" font-family="Times,serif" font-size="14.00">Success_Outlook</text>
</g>
<!-- Failed_Tables_After_Retry&#45;&gt;Success_Outlook -->
<g id="edge13" class="edge">
<title>Failed_Tables_After_Retry&#45;&gt;Success_Outlook</title>
<path fill="none" stroke="black" d="M411.55,-392.8C414.86,-381.05 419.33,-365.24 423.11,-351.84"/>
<polygon fill="black" stroke="black" points="426.49,-352.75 425.84,-342.18 419.75,-350.85 426.49,-352.75"/>
<text text-anchor="middle" x="430.19" y="-363.8" font-family="Times,serif" font-size="14.00">No</text>
</g>
<!-- Failed_Error_Message -->
<g id="node14" class="node">
<title>Failed_Error_Message</title>
<ellipse fill="none" stroke="black" cx="209.69" cy="-324" rx="114.28" ry="18"/>
<text text-anchor="middle" x="209.69" y="-320.3" font-family="Times,serif" font-size="14.00">Failed_Error_Message</text>
</g>
<!-- Failed_Tables_After_Retry&#45;&gt;Failed_Error_Message -->
<g id="edge14" class="edge">
<title>Failed_Tables_After_Retry&#45;&gt;Failed_Error_Message</title>
<path fill="none" stroke="black" d="M368.7,-393.61C336.61,-379.76 290.53,-359.88 256.23,-345.08"/>
<polygon fill="black" stroke="black" points="257.46,-341.8 246.89,-341.05 254.68,-348.23 257.46,-341.8"/>
<text text-anchor="middle" x="333.19" y="-363.8" font-family="Times,serif" font-size="14.00">Yes</text>
</g>
<!-- Wait_Review_Failed_Logs&#45;&gt;All_Table_Loads_Successful -->
<g id="edge12" class="edge">
<title>Wait_Review_Failed_Logs&#45;&gt;All_Table_Loads_Successful</title>
<path fill="none" stroke="black" d="M206.8,-425.34C227.83,-430.53 250.15,-437.57 269.69,-447 283.82,-453.82 297.84,-464.04 309.22,-473.46"/>
<polygon fill="black" stroke="black" points="307.13,-476.28 317,-480.13 311.68,-470.96 307.13,-476.28"/>
</g>
<!-- Publish_DM_Workspace -->
<g id="node15" class="node">
<title>Publish_DM_Workspace</title>
<ellipse fill="none" stroke="black" cx="399.69" cy="-251" rx="120.78" ry="18"/>
<text text-anchor="middle" x="399.69" y="-247.3" font-family="Times,serif" font-size="14.00">Publish_DM_Workspace</text>
</g>
<!-- Success_Outlook&#45;&gt;Publish_DM_Workspace -->
<g id="edge15" class="edge">
<title>Success_Outlook&#45;&gt;Publish_DM_Workspace</title>
<path fill="none" stroke="black" d="M423.18,-305.81C419.61,-297.62 415.24,-287.62 411.25,-278.48"/>
<polygon fill="black" stroke="black" points="414.33,-276.79 407.12,-269.03 407.92,-279.59 414.33,-276.79"/>
</g>
<!-- Failed_Error_Message&#45;&gt;Publish_DM_Workspace -->
<g id="edge16" class="edge">
<title>Failed_Error_Message&#45;&gt;Publish_DM_Workspace</title>
<path fill="none" stroke="black" d="M251.86,-307.24C280.07,-296.7 317.4,-282.75 347.49,-271.51"/>
<polygon fill="black" stroke="black" points="348.84,-274.74 356.98,-267.96 346.39,-268.18 348.84,-274.74"/>
</g>
<!-- PowerBI_Generate_Reports -->
<g id="node16" class="node">
<title>PowerBI_Generate_Reports</title>
<ellipse fill="none" stroke="black" cx="399.69" cy="-178" rx="137.58" ry="18"/>
<text text-anchor="middle" x="399.69" y="-174.3" font-family="Times,serif" font-size="14.00">PowerBI_Generate_Reports</text>
</g>
<!-- Publish_DM_Workspace&#45;&gt;PowerBI_Generate_Reports -->
<g id="edge17" class="edge">
<title>Publish_DM_Workspace&#45;&gt;PowerBI_Generate_Reports</title>
<path fill="none" stroke="black" d="M399.69,-232.81C399.69,-224.79 399.69,-215.05 399.69,-206.07"/>
<polygon fill="black" stroke="black" points="403.19,-206.03 399.69,-196.03 396.19,-206.03 403.19,-206.03"/>
</g>
<!-- Process_Status_Fabric -->
<g id="node17" class="node">
<title>Process_Status_Fabric</title>
<ellipse fill="none" stroke="black" cx="416.69" cy="-105" rx="115.08" ry="18"/>
<text text-anchor="middle" x="416.69" y="-101.3" font-family="Times,serif" font-size="14.00">Process_Status_Fabric</text>
</g>
<!-- PowerBI_Generate_Reports&#45;&gt;Process_Status_Fabric -->
<g id="edge18" class="edge">
<title>PowerBI_Generate_Reports&#45;&gt;Process_Status_Fabric</title>
<path fill="none" stroke="black" d="M403.8,-159.81C405.75,-151.7 408.11,-141.84 410.28,-132.78"/>
<polygon fill="black" stroke="black" points="413.69,-133.57 412.61,-123.03 406.88,-131.94 413.69,-133.57"/>
</g>
<!-- Process_Status_Fabric&#45;&gt;End_Success -->
<g id="edge19" class="edge">
<title>Process_Status_Fabric&#45;&gt;End_Success</title>
<path fill="none" stroke="black" d="M445.58,-87.41C469.25,-73.81 502.89,-54.49 528.38,-39.85"/>
<polygon fill="black" stroke="black" points="530.44,-42.7 537.37,-34.69 526.96,-36.63 530.44,-42.7"/>
<text text-anchor="middle" x="511.19" y="-57.8" font-family="Times,serif" font-size="14.00">Yes</text>
</g>
<!-- Raise_Issue_Fix -->
<g id="node18" class="node">
<title>Raise_Issue_Fix</title>
<ellipse fill="none" stroke="black" cx="388.69" cy="-18" rx="83.69" ry="18"/>
<text text-anchor="middle" x="388.69" y="-14.3" font-family="Times,serif" font-size="14.00">Raise_Issue_Fix</text>
</g>
<!-- Process_Status_Fabric&#45;&gt;Raise_Issue_Fix -->
<g id="edge20" class="edge">
<title>Process_Status_Fabric&#45;&gt;Raise_Issue_Fix</title>
<path fill="none" stroke="black" d="M395.87,-87.03C390.93,-81.82 386.34,-75.68 383.69,-69 380.86,-61.86 380.56,-53.73 381.39,-46.12"/>
<polygon fill="black" stroke="black" points="384.85,-46.66 383.1,-36.22 377.95,-45.48 384.85,-46.66"/>
<text text-anchor="middle" x="394.19" y="-57.8" font-family="Times,serif" font-size="14.00">No</text>
</g>
<!-- Raise_Issue_Fix&#45;&gt;Process_Status_Fabric -->
<g id="edge21" class="edge">
<title>Raise_Issue_Fix&#45;&gt;Process_Status_Fabric</title>
<path fill="none" stroke="black" d="M397.34,-36.18C399.94,-41.77 402.64,-48.06 404.69,-54 407.18,-61.23 409.35,-69.21 411.13,-76.64"/>
<polygon fill="black" stroke="black" points="407.77,-77.66 413.39,-86.64 414.6,-76.12 407.77,-77.66"/>
</g>
</g>
</svg>
